<?xml version="1.0" encoding="UTF-8"?>
<svg xmlns="http://www.w3.org/2000/svg" xmlns:xlink="http://www.w3.org/1999/xlink" width="20pt" height="20pt" viewBox="0 0 20 20" version="1.1">
<defs>
<linearGradient id="linear0" gradientUnits="userSpaceOnUse" x1="256" y1="0" x2="256" y2="512" gradientTransform="matrix(0.0390625,0,0,0.0390625,0,0)">
<stop offset="0" style="stop-color:rgb(16.470588%,96.078431%,59.607843%);stop-opacity:1;"/>
<stop offset="1" style="stop-color:rgb(0%,61.960784%,99.215686%);stop-opacity:1;"/>
</linearGradient>
</defs>
<g id="surface1">
<path style=" stroke:none;fill-rule:nonzero;fill:url(#linear0);" d="M 10.089844 12.121094 L 18.835938 2.519531 L 19.992188 3.574219 L 10.167969 14.355469 L 4.8125 9.265625 L 5.890625 8.132812 Z M 19.382812 6.535156 L 18.167969 7.875 C 18.34375 8.554688 18.4375 9.265625 18.4375 10 C 18.4375 14.652344 14.652344 18.4375 10 18.4375 C 5.347656 18.4375 1.5625 14.652344 1.5625 10 C 1.5625 5.347656 5.347656 1.5625 10 1.5625 C 12.15625 1.5625 14.125 2.375 15.617188 3.710938 L 16.671875 2.550781 C 14.835938 0.902344 12.488281 0 10 0 C 7.328125 0 4.816406 1.039062 2.929688 2.929688 C 1.039062 4.816406 0 7.328125 0 10 C 0 12.671875 1.039062 15.183594 2.929688 17.070312 C 4.816406 18.960938 7.328125 20 10 20 C 12.671875 20 15.183594 18.960938 17.070312 17.070312 C 18.960938 15.183594 20 12.671875 20 10 C 20 8.796875 19.789062 7.628906 19.382812 6.535156 Z M 19.382812 6.535156 "/>
</g>
</svg>
