<?xml version="1.0" encoding="UTF-8"?>
<svg xmlns="http://www.w3.org/2000/svg" xmlns:xlink="http://www.w3.org/1999/xlink" width="20pt" height="20pt" viewBox="0 0 20 20" version="1.1">
<defs>
<linearGradient id="linear0" gradientUnits="userSpaceOnUse" x1="0" y1="258" x2="512" y2="258" gradientTransform="matrix(0.0390625,0,0,-0.0390625,0,20.078125)">
<stop offset="0" style="stop-color:rgb(50.196078%,84.705882%,100%);stop-opacity:1;"/>
<stop offset="0.16" style="stop-color:rgb(53.333333%,81.960784%,100%);stop-opacity:1;"/>
<stop offset="0.413" style="stop-color:rgb(62.352941%,74.509804%,99.607843%);stop-opacity:1;"/>
<stop offset="0.725" style="stop-color:rgb(76.862745%,62.745098%,99.215686%);stop-opacity:1;"/>
<stop offset="1" style="stop-color:rgb(91.764706%,50.196078%,98.823529%);stop-opacity:1;"/>
</linearGradient>
</defs>
<g id="surface1">
<path style=" stroke:none;fill-rule:nonzero;fill:url(#linear0);" d="M 10 0 C 4.472656 0 0 4.472656 0 10 C 0 15.527344 4.472656 20 10 20 C 15.527344 20 20 15.527344 20 10 C 20 4.472656 15.527344 0 10 0 Z M 10 18.4375 C 5.335938 18.4375 1.5625 14.664062 1.5625 10 C 1.5625 5.335938 5.335938 1.5625 10 1.5625 C 14.664062 1.5625 18.4375 5.335938 18.4375 10 C 18.4375 14.664062 14.664062 18.4375 10 18.4375 Z M 13.421875 7.683594 L 11.105469 10 L 13.421875 12.316406 C 13.726562 12.621094 13.726562 13.117188 13.421875 13.421875 C 13.117188 13.726562 12.621094 13.726562 12.316406 13.421875 L 10 11.105469 L 7.683594 13.421875 C 7.378906 13.726562 6.882812 13.726562 6.578125 13.421875 C 6.273438 13.117188 6.273438 12.621094 6.578125 12.316406 L 8.894531 10 L 6.578125 7.683594 C 6.273438 7.378906 6.273438 6.882812 6.578125 6.578125 C 6.882812 6.273438 7.378906 6.273438 7.683594 6.578125 L 10 8.894531 L 12.316406 6.578125 C 12.621094 6.273438 13.117188 6.273438 13.421875 6.578125 C 13.726562 6.882812 13.726562 7.378906 13.421875 7.683594 Z M 13.421875 7.683594 "/>
</g>
</svg>
