<svg xmlns="http://www.w3.org/2000/svg" height="511pt" version="1.1" viewBox="0 -3 511.99922 511" width="511pt">
<g id="surface1">
<path d="M 298.839844 10.546875 L 298.503906 10.378906 C 296.679688 9.484375 294.835938 8.566406 292.980469 7.636719 L 287.769531 5.035156 L 288.675781 10.789062 C 288.984375 12.75 289.273438 14.703125 289.558594 16.640625 L 289.722656 17.757812 C 290.230469 21.242188 290.734375 24.65625 291.308594 28.132812 L 291.832031 31.308594 L 294.964844 30.5625 C 301.097656 29.097656 306.347656 23.984375 308.03125 17.835938 L 308.679688 15.46875 L 306.488281 14.363281 C 303.933594 13.074219 301.378906 11.808594 298.839844 10.546875 Z M 298.839844 10.546875 " style=" stroke:none;fill-rule:nonzero;fill:rgb(35.686275%,36.470588%,42.745098%);fill-opacity:1;" />
<path d="M 370.84375 215.703125 C 367.5 213.660156 363.617188 213.238281 358.816406 213.238281 C 358.078125 213.238281 357.320312 213.25 356.539062 213.261719 L 266.457031 214.851562 L 267.5625 218.625 C 267.585938 218.710938 267.589844 218.757812 267.589844 218.761719 L 265.652344 275.546875 C 265.644531 275.765625 265.503906 275.957031 265.296875 276.03125 C 265.234375 276.054688 265.171875 276.066406 265.109375 276.066406 C 264.960938 276.066406 264.816406 276.003906 264.71875 275.894531 L 245.136719 254.152344 L 228.03125 278.945312 C 227.933594 279.085938 227.769531 279.171875 227.589844 279.171875 C 227.523438 279.171875 227.457031 279.160156 227.425781 279.152344 C 227.191406 279.070312 227.046875 278.855469 227.054688 278.617188 L 230.144531 215.496094 L 201.921875 215.992188 L 197.269531 481.921875 C 197.269531 481.925781 197.265625 481.976562 197.222656 482.097656 L 195.863281 486.050781 L 359.925781 486.921875 C 364.511719 486.921875 369.292969 486.707031 372.867188 484.140625 C 378.378906 480.191406 379.140625 472.390625 379.140625 464.554688 L 379.179688 239.703125 C 379.179688 230.347656 378.1875 220.183594 370.84375 215.703125 Z M 272.304688 444.324219 L 272.832031 441.792969 L 274.046875 443.015625 Z M 272.304688 444.324219 " style=" stroke:none;fill-rule:nonzero;fill:rgb(94.117647%,94.901961%,98.039216%);fill-opacity:1;" />
<path d="M 386.21875 80.09375 C 373.710938 65.925781 360.78125 51.273438 345.84375 38.882812 L 342.183594 35.84375 L 341.019531 40.457031 C 340.304688 43.292969 338.597656 46.34375 336.332031 48.839844 C 334.265625 51.128906 331.171875 52.570312 327.851562 52.789062 L 324.222656 53.027344 L 321.503906 49.957031 L 320.144531 55.53125 C 319.527344 58.066406 318.328125 60.433594 316.667969 62.394531 C 314.59375 64.875 311.820312 66.699219 308.648438 67.671875 L 304.894531 68.824219 L 306.996094 72.144531 C 315.136719 85.011719 325.101562 96.65625 334.738281 107.917969 L 424.289062 212.632812 L 426.550781 210.839844 C 426.628906 210.78125 426.710938 210.738281 426.761719 210.730469 C 435.25 209.167969 443.339844 204.972656 449.546875 198.917969 L 450.1875 198.289062 L 450.273438 198.386719 L 451.109375 197.390625 L 451.589844 196.921875 L 451.546875 196.871094 L 452.511719 195.714844 C 458.28125 188.808594 461.871094 180.078125 462.617188 171.128906 L 462.71875 169.945312 L 461.980469 169.015625 C 437.507812 138.175781 411.433594 108.648438 386.21875 80.09375 Z M 386.21875 80.09375 " style=" stroke:none;fill-rule:nonzero;fill:rgb(35.686275%,81.568627%,98.823529%);fill-opacity:1;" />
<path d="M 418.90625 427.492188 L 421.917969 427.492188 L 422.378906 427.484375 L 422.472656 427.457031 L 484.746094 423.933594 L 484.667969 421.023438 C 484.574219 417.503906 484.449219 413.851562 484.285156 409.851562 L 484.160156 406.746094 L 418.96875 411.734375 Z M 418.90625 427.492188 " style=" stroke:none;fill-rule:nonzero;fill:rgb(100%,100%,100%);fill-opacity:1;" />
<path d="M 419.167969 360.882812 L 481.441406 359.589844 L 480.585938 356.167969 C 480.296875 353.328125 480 350.46875 479.691406 347.609375 L 479.402344 344.929688 L 476.710938 344.929688 C 476.613281 344.929688 476.519531 344.933594 476.425781 344.945312 L 419.21875 346.101562 Z M 419.167969 360.882812 " style=" stroke:none;fill-rule:nonzero;fill:rgb(100%,100%,100%);fill-opacity:1;" />
<path d="M 48.820312 203.589844 C 62.203125 203.308594 75.902344 203.078125 89.929688 202.851562 L 111.601562 202.492188 L 308.21875 199.019531 L 306.996094 195.183594 C 299.316406 171.070312 291.210938 147.328125 283.367188 124.375 L 282.914062 123.046875 C 273.328125 95.019531 263.414062 66.035156 254.234375 36.199219 C 251 25.691406 247.074219 15.046875 237.953125 10.433594 C 234.902344 8.886719 231.503906 8.136719 227.570312 8.136719 C 220.980469 8.136719 213.96875 10.320312 207.917969 12.367188 L 17.234375 76.777344 C 12.222656 78.460938 7.15625 80.46875 5.050781 84.882812 C 2.917969 89.355469 4.632812 94.636719 6.570312 99.664062 L 46.714844 203.636719 Z M 40.144531 112.671875 L 40.699219 107.007812 L 42.074219 112.535156 Z M 40.144531 112.671875 " style=" stroke:none;fill-rule:nonzero;fill:rgb(100%,100%,100%);fill-opacity:1;" />
<path d="M 120.128906 217.433594 L 97.1875 217.816406 C 85.480469 218.007812 73.375 218.207031 61.488281 218.460938 C 60.25 218.492188 58.945312 218.492188 57.558594 218.492188 C 48.558594 218.511719 37.355469 218.542969 31.695312 225.640625 C 25.421875 233.515625 26.351562 248.964844 27.105469 261.480469 C 27.347656 265.355469 27.597656 269.363281 27.550781 272.613281 L 24.378906 463.90625 C 24.277344 470.285156 24.558594 477.433594 29.175781 481.53125 C 32.96875 484.910156 38.441406 485.210938 44.183594 485.230469 L 197.613281 486.054688 L 196.25 482.0625 C 196.210938 481.949219 196.210938 481.902344 196.210938 481.882812 L 200.851562 216.007812 Z M 120.128906 217.433594 " style=" stroke:none;fill-rule:nonzero;fill:rgb(100%,100%,100%);fill-opacity:1;" />
<path d="M 390.71875 498.160156 C 396.835938 493.773438 397.679688 485.144531 397.679688 476.472656 L 397.71875 228.210938 C 397.71875 217.863281 396.621094 206.613281 388.480469 201.648438 C 384.78125 199.394531 380.492188 198.929688 375.191406 198.929688 C 374.398438 198.929688 373.574219 198.941406 372.65625 198.949219 L 111.617188 203.550781 C 104.398438 203.683594 97.167969 203.800781 89.941406 203.921875 C 76.6875 204.136719 61.667969 204.382812 46.875 204.691406 C 45.515625 204.71875 44.066406 204.730469 42.539062 204.730469 C 32.585938 204.75 20.199219 204.777344 13.933594 212.640625 C 6.988281 221.355469 8.019531 238.433594 8.855469 252.242188 L 8.875 252.53125 C 9.144531 256.949219 9.398438 261.121094 9.339844 264.542969 L 5.847656 475.75 C 5.730469 482.804688 6.027344 490.710938 11.15625 495.273438 C 15.351562 499 21.40625 499.339844 27.765625 499.371094 L 376.738281 501.238281 C 381.644531 501.238281 386.765625 501 390.71875 498.160156 Z M 373.492188 485.011719 C 369.839844 487.628906 365.050781 487.992188 360.417969 487.992188 L 359.214844 487.992188 L 44.171875 486.300781 C 39.671875 486.28125 32.875 486.253906 28.460938 482.335938 C 23.507812 477.9375 23.207031 470.808594 23.320312 463.878906 L 26.480469 272.589844 C 26.53125 269.398438 26.28125 265.402344 26.042969 261.519531 C 25.273438 248.894531 24.316406 233.183594 30.855469 224.972656 C 36.839844 217.464844 48.808594 217.441406 57.570312 217.421875 C 58.933594 217.421875 60.25 217.421875 61.472656 217.390625 C 74.027344 217.128906 86.601562 216.917969 100.558594 216.691406 L 107.300781 216.578125 C 111.570312 216.511719 115.839844 216.441406 120.101562 216.363281 L 356.527344 212.199219 C 357.375 212.183594 358.257812 212.167969 359.164062 212.167969 C 363.09375 212.167969 367.617188 212.480469 371.394531 214.78125 C 379.195312 219.546875 380.25 230.058594 380.25 239.710938 L 380.210938 464.550781 C 380.210938 472.671875 379.394531 480.769531 373.492188 485.011719 Z M 373.492188 485.011719 " style=" stroke:none;fill-rule:nonzero;fill:rgb(68.627451%,47.45098%,47.45098%);fill-opacity:1;" />
<path d="M 339.160156 33.609375 L 338.632812 33.21875 C 328.976562 26.152344 318.347656 20.429688 310.167969 16.234375 L 307.023438 14.621094 L 305.941406 17.984375 C 304.230469 23.304688 299.664062 27.507812 294.304688 28.691406 L 291.488281 29.3125 L 291.996094 32.152344 C 293.605469 41.113281 296.179688 52.757812 301.867188 63.390625 C 302.285156 64.15625 302.703125 64.910156 303.132812 65.660156 L 304.164062 67.480469 L 306.222656 67.140625 C 309.960938 66.53125 313.472656 64.546875 315.871094 61.699219 C 318.507812 58.558594 319.875 54.234375 319.527344 50.132812 C 319.511719 49.925781 319.617188 49.730469 319.800781 49.625 C 319.882812 49.578125 319.972656 49.558594 320.0625 49.558594 C 320.140625 49.558594 320.261719 49.574219 320.378906 49.660156 C 322.203125 50.996094 324.554688 51.734375 326.996094 51.734375 C 330.347656 51.734375 333.464844 50.417969 335.542969 48.125 C 338.054688 45.359375 342.109375 38.878906 339.476562 34.175781 Z M 339.160156 33.609375 " style=" stroke:none;fill-rule:nonzero;fill:rgb(100%,82.352941%,73.333333%);fill-opacity:1;" />
<path d="M 492.976562 210.3125 C 492.660156 209.859375 492.339844 209.410156 492.015625 208.960938 C 491.71875 208.542969 491.417969 208.128906 491.125 207.707031 L 487.558594 202.625 L 485.792969 208.578125 C 483.515625 216.261719 479.105469 223.066406 473.046875 228.261719 C 467.054688 233.398438 459.734375 236.703125 451.878906 237.8125 L 446.464844 238.574219 L 456.371094 250.15625 C 461.050781 255.628906 465.890625 261.289062 472.03125 265.261719 C 476.839844 268.371094 481.964844 270.011719 486.851562 270.011719 C 488.835938 270.011719 490.75 269.738281 492.539062 269.195312 C 503.691406 265.820312 509.003906 252.4375 507.699219 241.453125 C 506.355469 230.09375 499.96875 220.238281 492.976562 210.3125 Z M 492.976562 210.3125 " style=" stroke:none;fill-rule:nonzero;fill:rgb(92.941176%,42.745098%,40%);fill-opacity:1;" />
<path d="M 484.761719 425 L 422.25 428.542969 C 422.226562 428.539062 418.902344 428.21875 418.902344 428.21875 L 418.847656 441.089844 C 418.828125 447.363281 419.144531 453.828125 423.222656 457.921875 C 427.015625 461.726562 432.789062 462.308594 438.871094 462.609375 L 465.835938 463.9375 C 466.894531 463.992188 468.152344 464.042969 469.417969 464.042969 C 472.695312 464.042969 476.851562 463.726562 479.949219 461.269531 C 484.441406 457.6875 485.050781 451.101562 485.039062 444.515625 C 485.03125 439.511719 484.960938 434.144531 484.828125 428.105469 Z M 484.761719 425 " style=" stroke:none;fill-rule:nonzero;fill:rgb(92.941176%,42.745098%,40%);fill-opacity:1;" />
<path d="M 478.890625 340.554688 C 478.671875 338.601562 478.449219 336.644531 478.21875 334.683594 C 478.046875 333.300781 477.960938 331.589844 477.863281 329.453125 C 477.574219 323.148438 477.207031 318.105469 475.363281 315.328125 C 473.261719 312.152344 468.488281 310.738281 459.878906 310.738281 C 457.40625 310.738281 454.96875 310.851562 452.914062 310.945312 C 450.832031 311.042969 449.125 311.121094 447.648438 311.121094 C 447.382812 311.121094 447.125 311.117188 446.859375 311.113281 C 446.359375 311.101562 445.839844 311.089844 445.308594 311.089844 C 435.382812 311.089844 427.988281 313.816406 423.921875 318.972656 C 419.652344 324.375 419.277344 331.527344 419.246094 339.628906 L 419.222656 345.023438 L 479.257812 343.824219 Z M 478.890625 340.554688 " style=" stroke:none;fill-rule:nonzero;fill:rgb(92.941176%,42.745098%,40%);fill-opacity:1;" />
<path d="M 245.085938 252.761719 C 245.242188 252.761719 245.375 252.824219 245.480469 252.941406 L 264.625 274.191406 C 264.625 274.191406 266.519531 218.683594 266.519531 218.664062 L 267.527344 214.832031 L 231.210938 215.472656 L 228.222656 276.789062 L 244.628906 253.007812 C 244.730469 252.863281 244.878906 252.777344 245.085938 252.761719 Z M 245.085938 252.761719 " style=" stroke:none;fill-rule:nonzero;fill:rgb(92.941176%,42.745098%,40%);fill-opacity:1;" />
<path d="M 482.109375 195.277344 L 478.464844 190.347656 L 478.457031 190.378906 C 477.453125 189.035156 476.445312 187.695312 475.425781 186.355469 L 472.839844 182.953125 L 472.839844 182.949219 L 472.578125 182.609375 L 471.515625 181.210938 L 471.511719 181.226562 L 471.121094 180.71875 C 470.058594 179.335938 468.996094 177.953125 467.921875 176.582031 L 464.070312 171.65625 L 462.636719 177.742188 C 460.886719 185.175781 457.292969 192.0625 452.238281 197.652344 C 446.140625 204.421875 437.875 209.289062 428.960938 211.359375 L 424.148438 212.472656 L 432.289062 221.996094 L 432.292969 221.996094 L 438.191406 228.898438 L 444.359375 236.117188 L 445.519531 237.40625 L 447.039062 237.144531 C 456.199219 236.925781 465.414062 233.398438 472.351562 227.449219 C 479.351562 221.453125 484.269531 212.804688 485.851562 203.683594 C 485.859375 203.648438 485.882812 203.605469 485.898438 203.574219 L 486.949219 201.859375 L 485.761719 200.238281 C 484.546875 198.585938 483.335938 196.929688 482.109375 195.277344 Z M 482.109375 195.277344 " style=" stroke:none;fill-rule:nonzero;fill:rgb(97.647059%,84.705882%,53.72549%);fill-opacity:1;" />
<path d="M 480.976562 360.421875 L 480.714844 357.644531 L 419.171875 358.921875 L 418.957031 413.699219 L 484.234375 408.703125 L 484.105469 405.800781 C 483.433594 390.636719 482.382812 375.371094 480.976562 360.421875 Z M 480.976562 360.421875 " style=" stroke:none;fill-rule:nonzero;fill:rgb(97.647059%,84.705882%,53.72549%);fill-opacity:1;" />
<path d="M 511.742188 240.972656 C 510.28125 228.667969 503.3125 217.917969 496.300781 207.957031 C 463.808594 161.820312 425.917969 118.90625 389.273438 77.40625 C 375.445312 61.746094 361.148438 45.558594 344.253906 32.363281 C 343.46875 31.753906 342.679688 31.152344 341.882812 30.5625 C 341.820312 30.488281 341.773438 30.410156 341.707031 30.335938 C 341.300781 29.886719 340.804688 29.578125 340.269531 29.386719 C 327.753906 20.351562 313.832031 13.4375 300.3125 6.742188 C 296.472656 4.835938 292.503906 2.867188 288.640625 0.886719 C 287.445312 0.277344 286.007812 0.394531 284.925781 1.191406 C 283.847656 1.988281 283.3125 3.328125 283.546875 4.648438 C 284.34375 9.160156 285.027344 13.828125 285.691406 18.34375 C 288.027344 34.238281 290.441406 50.671875 298.269531 65.289062 C 307.242188 82.03125 319.644531 96.539062 331.640625 110.5625 L 453.253906 252.773438 C 458.132812 258.480469 463.175781 264.375 469.820312 268.671875 C 475.316406 272.226562 481.265625 274.074219 486.882812 274.074219 C 489.238281 274.074219 491.539062 273.75 493.71875 273.085938 C 503.9375 269.996094 513.726562 257.6875 511.742188 240.972656 Z M 446.644531 234.167969 L 441.835938 228.542969 C 451.125 227.707031 459.976562 223.867188 466.9375 217.617188 C 473.066406 212.109375 477.484375 204.941406 479.699219 197.058594 C 480.917969 198.707031 482.132812 200.359375 483.339844 202.015625 C 483.125 202.375 482.960938 202.777344 482.886719 203.214844 C 481.425781 211.621094 476.878906 219.621094 470.402344 225.171875 C 463.925781 230.722656 455.320312 233.996094 446.792969 234.152344 C 446.742188 234.152344 446.695312 234.164062 446.644531 234.167969 Z M 435.898438 221.605469 C 445.25 220.558594 454.339844 216.292969 461.078125 209.742188 C 467.023438 203.960938 471.230469 196.296875 473.042969 188.171875 C 474.21875 189.71875 475.386719 191.277344 476.554688 192.832031 C 474.933594 201.113281 470.5 208.984375 464.234375 214.613281 C 457.605469 220.566406 448.699219 224.21875 439.796875 224.632812 C 439.417969 224.652344 439.074219 224.78125 438.78125 224.972656 Z M 429.640625 214.285156 C 439.164062 212.070312 447.917969 206.9375 454.472656 199.664062 C 459.898438 193.648438 463.710938 186.285156 465.5625 178.425781 C 466.953125 180.210938 468.328125 182.007812 469.707031 183.804688 C 468.625 192.4375 464.496094 200.785156 458.261719 206.84375 C 451.765625 213.160156 442.855469 217.128906 433.820312 217.738281 C 433.46875 217.761719 433.148438 217.882812 432.871094 218.0625 Z M 383.972656 82.082031 C 409.34375 110.816406 435.3125 140.234375 459.628906 170.882812 C 458.929688 179.273438 455.601562 187.34375 450.207031 193.792969 L 328.050781 55.777344 C 331.992188 55.527344 335.84375 53.855469 338.5625 50.851562 C 341.039062 48.117188 343.050781 44.675781 343.925781 41.191406 C 358.609375 53.375 371.488281 67.945312 383.972656 82.082031 Z M 297.175781 13.074219 C 299.820312 14.382812 302.476562 15.703125 305.136719 17.042969 C 303.75 22.117188 299.382812 26.425781 294.265625 27.640625 C 293.703125 24.195312 293.191406 20.742188 292.6875 17.316406 C 292.351562 15.011719 292.007812 12.671875 291.644531 10.324219 C 293.5 11.253906 295.351562 12.171875 297.175781 13.074219 Z M 294.945312 31.621094 C 301.382812 30.203125 306.789062 25.148438 308.796875 18.902344 C 318.503906 23.882812 328.113281 29.238281 336.855469 35.640625 C 338.421875 38.433594 335.855469 43.3125 333.324219 46.105469 C 330.621094 49.09375 325.398438 49.625 322.148438 47.242188 C 321.027344 46.421875 319.539062 46.335938 318.328125 47.011719 C 317.121094 47.691406 316.421875 49.015625 316.539062 50.394531 C 316.820312 53.714844 315.710938 57.222656 313.5625 59.773438 C 311.613281 62.089844 308.738281 63.691406 305.738281 64.179688 C 305.320312 63.4375 304.902344 62.699219 304.503906 61.949219 C 299.503906 52.621094 296.847656 42.203125 294.945312 31.621094 Z M 309.53125 70.539062 C 313.183594 69.417969 316.5 67.265625 318.972656 64.324219 C 320.945312 61.976562 322.335938 59.191406 323.0625 56.238281 L 447.445312 196.769531 C 441.648438 202.429688 434.207031 206.3125 426.21875 207.785156 C 425.636719 207.890625 425.121094 208.148438 424.6875 208.492188 L 337.015625 105.972656 C 327.402344 94.730469 317.523438 83.171875 309.53125 70.539062 Z M 491.671875 266.324219 C 486.277344 267.957031 479.714844 266.652344 473.660156 262.738281 C 467.878906 259 463.175781 253.5 458.625 248.183594 L 452.300781 240.785156 C 460.644531 239.605469 468.554688 236.066406 475 230.539062 C 481.507812 224.960938 486.246094 217.597656 488.664062 209.433594 C 489.28125 210.300781 489.90625 211.160156 490.519531 212.03125 C 497.28125 221.632812 503.453125 231.132812 504.71875 241.804688 C 505.878906 251.5625 501.316406 263.402344 491.671875 266.324219 Z M 491.671875 266.324219 " style=" stroke:none;fill-rule:nonzero;fill:rgb(0%,0%,0%);fill-opacity:1;" />
<path d="M 372.964844 212.226562 C 367.675781 209 361.460938 209.105469 356.464844 209.199219 L 120.050781 213.363281 C 113.539062 213.476562 107.023438 213.585938 100.507812 213.691406 C 87.695312 213.898438 74.441406 214.117188 61.40625 214.394531 C 60.195312 214.421875 58.90625 214.421875 57.574219 214.425781 C 48.214844 214.441406 35.394531 214.464844 28.511719 223.105469 C 21.246094 232.222656 22.246094 248.578125 23.050781 261.71875 C 23.296875 265.742188 23.527344 269.542969 23.476562 272.546875 L 20.316406 463.832031 C 20.195312 471.117188 20.5625 479.328125 26.472656 484.578125 C 31.714844 489.238281 39.203125 489.277344 44.15625 489.300781 L 359.199219 490.988281 C 359.59375 490.988281 360.003906 490.992188 360.421875 490.992188 C 364.925781 490.992188 370.648438 490.742188 375.238281 487.449219 C 382.246094 482.425781 383.210938 473.472656 383.214844 464.546875 L 383.25 239.707031 C 383.25 229.222656 382.03125 217.757812 372.964844 212.226562 Z M 234.070312 218.421875 L 263.617188 217.902344 C 263.5625 218.132812 263.527344 218.371094 263.519531 218.617188 L 261.878906 266.664062 L 247.707031 250.929688 C 246.980469 250.125 245.941406 249.699219 244.851562 249.769531 C 243.769531 249.835938 242.785156 250.398438 242.171875 251.289062 L 231.726562 266.425781 Z M 31.164062 479.292969 C 27.496094 476.035156 27.289062 469.664062 27.382812 463.949219 L 30.546875 272.664062 C 30.597656 269.386719 30.359375 265.453125 30.105469 261.292969 C 29.375 249.355469 28.46875 234.503906 34.042969 227.507812 C 38.804688 221.527344 49.21875 221.511719 57.585938 221.496094 C 58.96875 221.492188 60.304688 221.492188 61.558594 221.464844 C 74.578125 221.1875 87.820312 220.96875 100.625 220.757812 C 107.144531 220.652344 113.660156 220.546875 120.175781 220.433594 L 197.796875 219.0625 L 193.207031 481.828125 C 193.203125 482.253906 193.28125 482.65625 193.410156 483.035156 L 44.195312 482.234375 C 39.042969 482.207031 34.167969 481.960938 31.164062 479.292969 Z M 376.144531 464.546875 C 376.144531 471.589844 375.535156 478.539062 371.117188 481.707031 C 368.207031 483.796875 364.015625 483.945312 359.238281 483.917969 L 200.058594 483.070312 C 200.183594 482.71875 200.265625 482.347656 200.273438 481.953125 L 204.867188 218.9375 L 226.984375 218.546875 L 224.0625 278.46875 C 223.984375 280.046875 224.964844 281.484375 226.460938 281.992188 C 226.832031 282.117188 227.214844 282.175781 227.589844 282.175781 C 228.730469 282.175781 229.828125 281.625 230.5 280.648438 L 245.449219 258.984375 L 262.484375 277.898438 C 263.449219 278.96875 264.96875 279.347656 266.320312 278.855469 C 267.675781 278.359375 268.59375 277.09375 268.644531 275.652344 L 270.585938 218.863281 C 270.597656 218.484375 270.535156 218.128906 270.4375 217.785156 L 356.589844 216.265625 C 361.777344 216.175781 366.007812 216.261719 369.28125 218.261719 C 375.363281 221.972656 376.179688 231.1875 376.179688 239.707031 Z M 376.144531 464.546875 " style=" stroke:none;fill-rule:nonzero;fill:rgb(0%,0%,0%);fill-opacity:1;" />
<path d="M 390.605469 198.179688 C 384.863281 194.671875 378.054688 194.789062 372.585938 194.886719 L 311.511719 195.964844 C 303.523438 170.757812 295.0625 146.007812 286.871094 122.0625 C 277.261719 93.953125 267.324219 64.894531 258.117188 34.996094 C 254.625 23.652344 250.332031 12.128906 239.792969 6.800781 C 229.40625 1.550781 217.710938 4.769531 206.617188 8.511719 L 15.929688 72.921875 C 11.613281 74.378906 4.386719 76.816406 1.375 83.128906 C -1.453125 89.066406 0.617188 95.535156 2.777344 101.132812 L 41.214844 200.667969 C 30.632812 200.699219 17.9375 201.085938 10.75 210.105469 C 2.816406 220.0625 3.914062 238.046875 4.796875 252.496094 C 5.070312 256.941406 5.328125 261.144531 5.269531 264.476562 L 1.78125 475.6875 C 1.648438 483.648438 2.042969 492.621094 8.453125 498.3125 C 14.140625 503.367188 22.324219 503.410156 27.738281 503.4375 L 375.601562 505.296875 C 376.039062 505.300781 376.484375 505.304688 376.945312 505.304688 C 381.871094 505.304688 388.121094 505.03125 393.09375 501.460938 C 400.695312 496.007812 401.746094 486.230469 401.746094 476.476562 L 401.785156 228.207031 C 401.789062 216.734375 400.460938 204.191406 390.605469 198.179688 Z M 7.757812 86.171875 C 9.347656 82.835938 13.78125 81.105469 18.191406 79.617188 L 208.882812 15.210938 C 218.550781 11.945312 228.660156 9.09375 236.605469 13.109375 C 244.671875 17.1875 248.316406 27.1875 251.363281 37.078125 C 260.601562 67.078125 270.558594 96.191406 280.183594 124.347656 C 288.140625 147.617188 296.355469 171.65625 304.136719 196.09375 L 111.542969 199.488281 C 104.320312 199.613281 97.101562 199.734375 89.878906 199.851562 C 76.402344 200.070312 62.488281 200.300781 48.761719 200.589844 L 9.371094 98.585938 C 7.667969 94.167969 6.136719 89.570312 7.757812 86.171875 Z M 394.675781 476.472656 C 394.675781 484.34375 393.984375 492.125 388.972656 495.71875 C 385.667969 498.089844 380.96875 498.269531 375.636719 498.230469 L 27.777344 496.371094 C 22.015625 496.339844 16.558594 496.0625 13.144531 493.027344 C 8.976562 489.324219 8.742188 482.195312 8.847656 475.804688 L 12.335938 264.589844 C 12.398438 260.984375 12.132812 256.652344 11.851562 252.0625 C 11.042969 238.824219 10.039062 222.34375 16.277344 214.507812 C 21.652344 207.769531 33.246094 207.746094 42.5625 207.730469 C 44.089844 207.726562 45.558594 207.726562 46.941406 207.695312 C 61.289062 207.386719 75.882812 207.152344 89.992188 206.917969 C 97.21875 206.800781 104.445312 206.683594 111.667969 206.554688 L 372.710938 201.957031 C 373.558594 201.941406 374.382812 201.929688 375.1875 201.929688 C 379.863281 201.929688 383.769531 202.285156 386.921875 204.210938 C 393.792969 208.40625 394.71875 218.695312 394.714844 228.207031 Z M 394.675781 476.472656 " style=" stroke:none;fill-rule:nonzero;fill:rgb(0%,0%,0%);fill-opacity:1;" />
<path d="M 482.253906 334.195312 C 482.097656 332.921875 482.019531 331.171875 481.933594 329.316406 C 481.671875 323.558594 481.375 317.035156 478.757812 313.078125 C 473.988281 305.867188 461.695312 306.453125 452.71875 306.882812 C 450.546875 306.988281 448.496094 307.085938 447.003906 307.042969 C 434.933594 306.710938 425.851562 309.957031 420.730469 316.453125 C 415.242188 323.40625 415.207031 332.773438 415.179688 339.609375 L 414.785156 441.074219 C 414.757812 448.207031 415.164062 455.605469 420.351562 460.800781 C 425.566406 466.027344 433.449219 466.414062 438.667969 466.671875 L 465.632812 468.003906 C 466.796875 468.058594 468.105469 468.125 469.503906 468.125 C 473.675781 468.125 478.589844 467.542969 482.476562 464.453125 C 488.339844 459.792969 489.128906 452.109375 489.109375 444.503906 C 489.03125 415.027344 487.527344 385.203125 484.640625 355.859375 C 483.933594 348.660156 483.128906 341.371094 482.253906 334.195312 Z M 421.957031 414.511719 L 481.289062 409.964844 C 481.4375 413.679688 481.566406 417.390625 481.671875 421.101562 L 421.972656 424.484375 C 421.953125 424.484375 421.9375 424.492188 421.917969 424.492188 Z M 476.707031 347.929688 C 477.015625 350.808594 477.324219 353.6875 477.605469 356.546875 C 477.609375 356.589844 477.613281 356.628906 477.617188 356.667969 L 422.179688 357.820312 L 422.210938 349.035156 L 476.585938 347.945312 C 476.628906 347.945312 476.664062 347.933594 476.707031 347.929688 Z M 422.164062 361.863281 L 477.988281 360.703125 C 479.394531 375.703125 480.4375 390.8125 481.109375 405.929688 L 421.972656 410.460938 Z M 426.28125 320.832031 C 430.601562 315.351562 438.734375 314.089844 445.3125 314.089844 C 445.820312 314.089844 446.316406 314.097656 446.804688 314.113281 C 448.5625 314.15625 450.746094 314.058594 453.058594 313.945312 C 459.511719 313.636719 470.308594 313.121094 472.863281 316.976562 C 474.402344 319.304688 474.675781 325.277344 474.871094 329.636719 C 474.964844 331.628906 475.050781 333.511719 475.234375 335.050781 C 475.472656 336.988281 475.6875 338.941406 475.914062 340.890625 L 422.242188 341.96875 L 422.25 339.636719 C 422.277344 332.105469 422.601562 325.492188 426.28125 320.832031 Z M 478.074219 458.921875 C 475.214844 461.195312 470.722656 461.175781 465.980469 460.941406 L 439.015625 459.613281 C 433.546875 459.34375 428.386719 458.847656 425.351562 455.808594 C 422.085938 452.53125 421.832031 446.746094 421.851562 441.101562 L 421.890625 431.519531 C 421.984375 431.527344 422.074219 431.546875 422.167969 431.546875 C 422.234375 431.546875 422.304688 431.546875 422.371094 431.542969 L 481.832031 428.171875 C 481.941406 433.628906 482.023438 439.082031 482.039062 444.523438 C 482.054688 450.351562 481.582031 456.128906 478.074219 458.921875 Z M 478.074219 458.921875 " style=" stroke:none;fill-rule:nonzero;fill:rgb(0%,0%,0%);fill-opacity:1;" />
<path d="M 178.082031 267.953125 C 178.078125 267.953125 178.070312 267.953125 178.066406 267.953125 L 50.648438 268.746094 C 49.535156 268.753906 48.636719 269.664062 48.640625 270.78125 C 48.648438 271.890625 49.550781 272.785156 50.664062 272.785156 C 50.667969 272.785156 50.671875 272.785156 50.675781 272.785156 L 178.09375 271.992188 C 179.207031 271.984375 180.105469 271.074219 180.101562 269.960938 C 180.09375 268.847656 179.1875 267.953125 178.082031 267.953125 Z M 178.082031 267.953125 " style=" stroke:none;fill-rule:nonzero;fill:rgb(0%,0%,0%);fill-opacity:1;" />
<path d="M 178.082031 289.070312 C 178.078125 289.070312 178.070312 289.070312 178.066406 289.070312 L 50.648438 289.863281 C 49.535156 289.871094 48.636719 290.78125 48.640625 291.894531 C 48.648438 293.003906 49.550781 293.902344 50.664062 293.902344 C 50.667969 293.902344 50.671875 293.902344 50.675781 293.902344 L 178.09375 293.109375 C 179.207031 293.101562 180.105469 292.191406 180.101562 291.074219 C 180.09375 289.964844 179.1875 289.070312 178.082031 289.070312 Z M 178.082031 289.070312 " style=" stroke:none;fill-rule:nonzero;fill:rgb(0%,0%,0%);fill-opacity:1;" />
<path d="M 178.082031 310.1875 C 178.078125 310.1875 178.070312 310.1875 178.066406 310.1875 L 50.648438 310.980469 C 49.535156 310.988281 48.636719 311.898438 48.640625 313.011719 C 48.648438 314.121094 49.550781 315.019531 50.664062 315.019531 C 50.667969 315.019531 50.671875 315.019531 50.675781 315.019531 L 178.09375 314.226562 C 179.207031 314.21875 180.105469 313.308594 180.101562 312.191406 C 180.09375 311.082031 179.1875 310.1875 178.082031 310.1875 Z M 178.082031 310.1875 " style=" stroke:none;fill-rule:nonzero;fill:rgb(0%,0%,0%);fill-opacity:1;" />
<path d="M 178.082031 331.300781 C 178.078125 331.300781 178.070312 331.300781 178.066406 331.300781 L 50.648438 332.097656 C 49.535156 332.105469 48.636719 333.015625 48.640625 334.128906 C 48.648438 335.238281 49.550781 336.136719 50.664062 336.136719 C 50.667969 336.136719 50.671875 336.136719 50.675781 336.136719 L 178.09375 335.339844 C 179.207031 335.335938 180.105469 334.425781 180.101562 333.308594 C 180.09375 332.199219 179.1875 331.300781 178.082031 331.300781 Z M 178.082031 331.300781 " style=" stroke:none;fill-rule:nonzero;fill:rgb(0%,0%,0%);fill-opacity:1;" />
<path d="M 178.082031 352.417969 C 178.078125 352.417969 178.070312 352.417969 178.066406 352.417969 L 50.648438 353.214844 C 49.535156 353.222656 48.636719 354.132812 48.640625 355.246094 C 48.648438 356.355469 49.550781 357.253906 50.664062 357.253906 C 50.667969 357.253906 50.671875 357.253906 50.675781 357.253906 L 178.09375 356.457031 C 179.207031 356.453125 180.105469 355.542969 180.101562 354.425781 C 180.09375 353.316406 179.1875 352.417969 178.082031 352.417969 Z M 178.082031 352.417969 " style=" stroke:none;fill-rule:nonzero;fill:rgb(0%,0%,0%);fill-opacity:1;" />
<path d="M 178.082031 373.535156 C 178.078125 373.535156 178.070312 373.535156 178.066406 373.535156 L 50.648438 374.332031 C 49.53125 374.339844 48.632812 375.25 48.640625 376.363281 C 48.648438 377.472656 49.550781 378.371094 50.660156 378.371094 C 50.664062 378.371094 50.667969 378.371094 50.675781 378.371094 L 178.09375 377.574219 C 179.207031 377.570312 180.105469 376.660156 180.097656 375.542969 C 180.09375 374.433594 179.1875 373.535156 178.082031 373.535156 Z M 178.082031 373.535156 " style=" stroke:none;fill-rule:nonzero;fill:rgb(0%,0%,0%);fill-opacity:1;" />
<path d="M 178.082031 394.652344 C 178.078125 394.652344 178.070312 394.652344 178.066406 394.652344 L 50.648438 395.449219 C 49.535156 395.457031 48.636719 396.367188 48.640625 397.480469 C 48.648438 398.589844 49.550781 399.488281 50.664062 399.488281 C 50.667969 399.488281 50.671875 399.488281 50.675781 399.488281 L 178.09375 398.691406 C 179.207031 398.6875 180.105469 397.777344 180.101562 396.660156 C 180.09375 395.546875 179.1875 394.652344 178.082031 394.652344 Z M 178.082031 394.652344 " style=" stroke:none;fill-rule:nonzero;fill:rgb(0%,0%,0%);fill-opacity:1;" />
<path d="M 178.082031 415.769531 C 178.078125 415.769531 178.070312 415.769531 178.066406 415.769531 L 50.648438 416.566406 C 49.535156 416.570312 48.636719 417.480469 48.640625 418.597656 C 48.648438 419.707031 49.550781 420.605469 50.664062 420.605469 C 50.667969 420.605469 50.671875 420.605469 50.675781 420.605469 L 178.09375 419.808594 C 179.207031 419.800781 180.105469 418.890625 180.101562 417.777344 C 180.09375 416.664062 179.1875 415.769531 178.082031 415.769531 Z M 178.082031 415.769531 " style=" stroke:none;fill-rule:nonzero;fill:rgb(0%,0%,0%);fill-opacity:1;" />
<path d="M 351.707031 289.070312 C 351.703125 289.070312 351.699219 289.070312 351.695312 289.070312 L 224.277344 289.863281 C 223.160156 289.871094 222.261719 290.78125 222.269531 291.894531 C 222.277344 293.003906 223.179688 293.902344 224.289062 293.902344 C 224.292969 293.902344 224.296875 293.902344 224.300781 293.902344 L 351.71875 293.109375 C 352.835938 293.101562 353.734375 292.191406 353.726562 291.074219 C 353.71875 289.964844 352.816406 289.070312 351.707031 289.070312 Z M 351.707031 289.070312 " style=" stroke:none;fill-rule:nonzero;fill:rgb(0%,0%,0%);fill-opacity:1;" />
<path d="M 351.707031 310.1875 C 351.703125 310.1875 351.699219 310.1875 351.695312 310.1875 L 224.277344 310.980469 C 223.160156 310.988281 222.261719 311.898438 222.269531 313.011719 C 222.277344 314.121094 223.179688 315.019531 224.289062 315.019531 C 224.292969 315.019531 224.296875 315.019531 224.300781 315.019531 L 351.71875 314.226562 C 352.835938 314.21875 353.734375 313.308594 353.726562 312.191406 C 353.71875 311.082031 352.816406 310.1875 351.707031 310.1875 Z M 351.707031 310.1875 " style=" stroke:none;fill-rule:nonzero;fill:rgb(0%,0%,0%);fill-opacity:1;" />
<path d="M 351.707031 331.300781 C 351.703125 331.300781 351.699219 331.300781 351.695312 331.300781 L 224.277344 332.097656 C 223.160156 332.105469 222.261719 333.015625 222.269531 334.128906 C 222.277344 335.238281 223.179688 336.136719 224.289062 336.136719 C 224.292969 336.136719 224.296875 336.136719 224.300781 336.136719 L 351.71875 335.339844 C 352.835938 335.335938 353.734375 334.425781 353.726562 333.308594 C 353.71875 332.199219 352.816406 331.300781 351.707031 331.300781 Z M 351.707031 331.300781 " style=" stroke:none;fill-rule:nonzero;fill:rgb(0%,0%,0%);fill-opacity:1;" />
<path d="M 351.707031 352.417969 C 351.703125 352.417969 351.699219 352.417969 351.695312 352.417969 L 224.277344 353.214844 C 223.160156 353.222656 222.261719 354.132812 222.269531 355.246094 C 222.277344 356.355469 223.179688 357.253906 224.289062 357.253906 C 224.292969 357.253906 224.296875 357.253906 224.300781 357.253906 L 351.71875 356.457031 C 352.835938 356.453125 353.734375 355.542969 353.726562 354.425781 C 353.71875 353.316406 352.816406 352.417969 351.707031 352.417969 Z M 351.707031 352.417969 " style=" stroke:none;fill-rule:nonzero;fill:rgb(0%,0%,0%);fill-opacity:1;" />
<path d="M 351.707031 373.535156 C 351.703125 373.535156 351.699219 373.535156 351.695312 373.535156 L 224.277344 374.332031 C 223.160156 374.339844 222.261719 375.25 222.269531 376.363281 C 222.277344 377.472656 223.179688 378.371094 224.289062 378.371094 C 224.292969 378.371094 224.296875 378.371094 224.300781 378.371094 L 351.71875 377.574219 C 352.835938 377.570312 353.734375 376.660156 353.726562 375.542969 C 353.71875 374.433594 352.816406 373.535156 351.707031 373.535156 Z M 351.707031 373.535156 " style=" stroke:none;fill-rule:nonzero;fill:rgb(0%,0%,0%);fill-opacity:1;" />
<path d="M 351.707031 394.652344 C 351.703125 394.652344 351.699219 394.652344 351.695312 394.652344 L 224.277344 395.449219 C 223.160156 395.457031 222.261719 396.367188 222.269531 397.480469 C 222.277344 398.589844 223.179688 399.488281 224.289062 399.488281 C 224.292969 399.488281 224.296875 399.488281 224.300781 399.488281 L 351.71875 398.691406 C 352.835938 398.6875 353.734375 397.777344 353.726562 396.660156 C 353.71875 395.546875 352.816406 394.652344 351.707031 394.652344 Z M 351.707031 394.652344 " style=" stroke:none;fill-rule:nonzero;fill:rgb(0%,0%,0%);fill-opacity:1;" />
<path d="M 351.707031 415.769531 C 351.703125 415.769531 351.699219 415.769531 351.695312 415.769531 L 224.277344 416.566406 C 223.160156 416.570312 222.261719 417.480469 222.269531 418.597656 C 222.277344 419.707031 223.179688 420.605469 224.289062 420.605469 C 224.292969 420.605469 224.296875 420.605469 224.300781 420.605469 L 351.71875 419.808594 C 352.835938 419.800781 353.734375 418.890625 353.726562 417.777344 C 353.71875 416.664062 352.816406 415.769531 351.707031 415.769531 Z M 351.707031 415.769531 " style=" stroke:none;fill-rule:nonzero;fill:rgb(0%,0%,0%);fill-opacity:1;" />
<path d="M 351.707031 436.886719 C 351.703125 436.886719 351.699219 436.886719 351.695312 436.886719 L 224.277344 437.683594 C 223.160156 437.6875 222.261719 438.597656 222.269531 439.714844 C 222.277344 440.824219 223.179688 441.71875 224.289062 441.71875 C 224.292969 441.71875 224.296875 441.71875 224.300781 441.71875 L 351.71875 440.925781 C 352.835938 440.917969 353.734375 440.007812 353.726562 438.894531 C 353.71875 437.78125 352.816406 436.886719 351.707031 436.886719 Z M 351.707031 436.886719 " style=" stroke:none;fill-rule:nonzero;fill:rgb(0%,0%,0%);fill-opacity:1;" />
<path d="M 178.082031 436.886719 C 178.078125 436.886719 178.070312 436.886719 178.066406 436.886719 L 50.648438 437.683594 C 49.53125 437.6875 48.632812 438.597656 48.640625 439.714844 C 48.648438 440.824219 49.550781 441.71875 50.660156 441.71875 C 50.664062 441.71875 50.667969 441.71875 50.675781 441.71875 L 178.09375 440.925781 C 179.207031 440.917969 180.105469 440.007812 180.097656 438.894531 C 180.09375 437.78125 179.1875 436.886719 178.082031 436.886719 Z M 178.082031 436.886719 " style=" stroke:none;fill-rule:nonzero;fill:rgb(0%,0%,0%);fill-opacity:1;" />
<path d="M 55.804688 111.496094 C 56.019531 111.496094 56.234375 111.460938 56.449219 111.386719 L 206.671875 60.066406 C 207.726562 59.703125 208.292969 58.554688 207.929688 57.5 C 207.570312 56.445312 206.425781 55.878906 205.367188 56.242188 L 55.144531 107.5625 C 54.085938 107.925781 53.523438 109.074219 53.886719 110.128906 C 54.171875 110.96875 54.960938 111.5 55.804688 111.496094 Z M 55.804688 111.496094 " style=" stroke:none;fill-rule:nonzero;fill:rgb(0%,0%,0%);fill-opacity:1;" />
<path d="M 65.777344 129.679688 C 65.988281 129.679688 66.207031 129.644531 66.421875 129.570312 L 216.644531 78.25 C 217.699219 77.886719 218.261719 76.738281 217.902344 75.683594 C 217.542969 74.628906 216.398438 74.066406 215.339844 74.425781 L 65.113281 125.746094 C 64.058594 126.109375 63.496094 127.257812 63.855469 128.3125 C 64.144531 129.15625 64.933594 129.683594 65.777344 129.679688 Z M 65.777344 129.679688 " style=" stroke:none;fill-rule:nonzero;fill:rgb(0%,0%,0%);fill-opacity:1;" />
<path d="M 72.816406 150.796875 C 73.027344 150.796875 73.246094 150.761719 73.460938 150.6875 L 223.683594 99.367188 C 224.738281 99.003906 225.300781 97.855469 224.941406 96.800781 C 224.582031 95.746094 223.4375 95.179688 222.378906 95.542969 L 72.152344 146.863281 C 71.097656 147.226562 70.535156 148.375 70.894531 149.429688 C 71.183594 150.269531 71.972656 150.800781 72.816406 150.796875 Z M 72.816406 150.796875 " style=" stroke:none;fill-rule:nonzero;fill:rgb(0%,0%,0%);fill-opacity:1;" />
<path d="M 82.789062 168.980469 C 83 168.980469 83.21875 168.945312 83.433594 168.871094 L 233.65625 117.550781 C 234.710938 117.1875 235.273438 116.039062 234.914062 114.984375 C 234.554688 113.929688 233.410156 113.367188 232.351562 113.726562 L 82.125 165.046875 C 81.070312 165.410156 80.507812 166.558594 80.867188 167.613281 C 81.15625 168.453125 81.945312 168.984375 82.789062 168.980469 Z M 82.789062 168.980469 " style=" stroke:none;fill-rule:nonzero;fill:rgb(0%,0%,0%);fill-opacity:1;" />
</g>
</svg>