<?xml version="1.0" encoding="UTF-8"?>
<svg xmlns="http://www.w3.org/2000/svg" xmlns:xlink="http://www.w3.org/1999/xlink" width="24pt" height="24pt" viewBox="0 0 32 32" version="1.1">
<defs>
<linearGradient id="linear0" gradientUnits="userSpaceOnUse" x1="873.04" y1="621.7" x2="26.73" y2="387.08" gradientTransform="matrix(0.0356939,0,0,-0.0380282,-2.275284,35.546513)">
<stop offset="0" style="stop-color:rgb(100%,64.705882%,1.568627%);stop-opacity:1;"/>
<stop offset="1" style="stop-color:rgb(100%,50.980392%,0.392157%);stop-opacity:1;"/>
</linearGradient>
<filter id="alpha" filterUnits="objectBoundingBox" x="0%" y="0%" width="100%" height="100%">
  <feColorMatrix type="matrix" in="SourceGraphic" values="0 0 0 0 1 0 0 0 0 1 0 0 0 0 1 0 0 0 1 0"/>
</filter>
<mask id="mask0">
  <g filter="url(#alpha)">
<rect x="0" y="0" width="32" height="32" style="fill:rgb(0%,0%,0%);fill-opacity:0.6;stroke:none;"/>
  </g>
</mask>
<clipPath id="clip1">
  <rect width="32" height="32"/>
</clipPath>
<g id="surface6" clip-path="url(#clip1)">
<path style=" stroke:none;fill-rule:nonzero;fill:rgb(100%,100%,100%);fill-opacity:1;" d="M 8.84375 24.730469 C 8.367188 24.730469 7.914062 24.527344 7.578125 24.167969 C 4.894531 21.363281 3.832031 17.238281 4.792969 13.363281 C 5.753906 9.492188 8.59375 6.46875 12.230469 5.441406 C 15.863281 4.417969 19.734375 5.546875 22.371094 8.40625 C 22.828125 8.886719 23.011719 9.59375 22.847656 10.257812 C 22.679688 10.921875 22.195312 11.441406 21.570312 11.617188 C 20.949219 11.792969 20.285156 11.601562 19.832031 11.109375 C 17.144531 8.285156 12.816406 8.300781 10.148438 11.144531 C 7.476562 13.992188 7.460938 18.601562 10.113281 21.464844 C 10.625 22.011719 10.78125 22.835938 10.503906 23.546875 C 10.222656 24.261719 9.570312 24.730469 8.84375 24.730469 Z M 8.84375 24.730469 "/>
</g>
</defs>
<g id="surface1">
<path style=" stroke:none;fill-rule:nonzero;fill:rgb(96.078431%,61.568627%,7.843137%);fill-opacity:1;" d="M 30.203125 31.707031 C 29.765625 31.707031 29.34375 31.535156 29.019531 31.230469 L 21.652344 24.335938 C 20.917969 23.636719 20.851562 22.4375 21.5 21.648438 C 22.152344 20.859375 23.277344 20.777344 24.023438 21.460938 L 31.386719 28.355469 C 31.949219 28.878906 32.148438 29.722656 31.882812 30.46875 C 31.621094 31.214844 30.949219 31.707031 30.203125 31.707031 Z M 30.203125 31.707031 "/>
<path style=" stroke:none;fill-rule:nonzero;fill:url(#linear0);" d="M 30.039062 16 C 30.039062 24.835938 23.3125 32 15.019531 32 C 6.726562 32 0.00390625 24.835938 0.00390625 16 C 0.00390625 7.164062 6.726562 0 15.019531 0 C 23.3125 0 30.039062 7.164062 30.039062 16 Z M 30.039062 16 "/>
<path style=" stroke:none;fill-rule:nonzero;fill:rgb(100%,100%,100%);fill-opacity:1;" d="M 15.097656 27.566406 C 12.324219 27.574219 9.660156 26.398438 7.699219 24.300781 C 7.242188 23.820312 7.058594 23.113281 7.226562 22.449219 C 7.390625 21.785156 7.875 21.265625 8.5 21.089844 C 9.121094 20.914062 9.785156 21.109375 10.238281 21.597656 C 12.921875 24.457031 17.273438 24.457031 19.957031 21.597656 C 22.640625 18.742188 22.640625 14.097656 19.957031 11.242188 C 19.257812 10.496094 19.257812 9.285156 19.957031 8.539062 C 20.660156 7.792969 21.796875 7.792969 22.496094 8.539062 C 26.574219 12.886719 26.574219 19.953125 22.496094 24.300781 C 20.539062 26.398438 17.875 27.574219 15.097656 27.566406 Z M 15.097656 27.566406 "/>
<use xlink:href="#surface6" mask="url(#mask0)"/>
</g>
</svg>
