<?xml version="1.0" encoding="UTF-8"?>
<svg xmlns="http://www.w3.org/2000/svg" xmlns:xlink="http://www.w3.org/1999/xlink" width="24pt" height="24pt" viewBox="0 0 32 32" version="1.1">
<defs>
<linearGradient id="linear0" gradientUnits="userSpaceOnUse" x1="743.95" y1="603.86" x2="1.44" y2="316.22" gradientTransform="matrix(0.0356995,0,0,-0.0356995,-2.277988,34.349744)">
<stop offset="0" style="stop-color:rgb(10.588235%,90.196078%,49.019608%);stop-opacity:1;"/>
<stop offset="1" style="stop-color:rgb(0%,77.254902%,58.431373%);stop-opacity:1;"/>
</linearGradient>
<filter id="alpha" filterUnits="objectBoundingBox" x="0%" y="0%" width="100%" height="100%">
  <feColorMatrix type="matrix" in="SourceGraphic" values="0 0 0 0 1 0 0 0 0 1 0 0 0 0 1 0 0 0 1 0"/>
</filter>
<mask id="mask0">
  <g filter="url(#alpha)">
<rect x="0" y="0" width="32" height="32" style="fill:rgb(0%,0%,0%);fill-opacity:0.6;stroke:none;"/>
  </g>
</mask>
<clipPath id="clip1">
  <rect x="0" y="0" width="32" height="32"/>
</clipPath>
<g id="surface5" clip-path="url(#clip1)">
<path style=" stroke:none;fill-rule:nonzero;fill:rgb(100%,100%,100%);fill-opacity:1;" d="M 8.78125 25.40625 C 7.726562 25.40625 6.871094 24.550781 6.871094 23.496094 L 6.871094 13.515625 C 6.859375 12.824219 7.21875 12.179688 7.816406 11.832031 C 8.414062 11.480469 9.152344 11.480469 9.746094 11.832031 C 10.34375 12.179688 10.707031 12.824219 10.691406 13.515625 L 10.691406 23.496094 C 10.691406 24.550781 9.835938 25.40625 8.78125 25.40625 Z M 8.78125 25.40625 "/>
</g>
<mask id="mask1">
  <g filter="url(#alpha)">
<rect x="0" y="0" width="32" height="32" style="fill:rgb(0%,0%,0%);fill-opacity:0.4;stroke:none;"/>
  </g>
</mask>
<clipPath id="clip2">
  <rect x="0" y="0" width="32" height="32"/>
</clipPath>
<g id="surface8" clip-path="url(#clip2)">
<path style=" stroke:none;fill-rule:nonzero;fill:rgb(100%,100%,100%);fill-opacity:1;" d="M 24.28125 25.40625 C 23.226562 25.40625 22.375 24.550781 22.375 23.496094 L 22.375 16.8125 C 22.394531 15.773438 23.242188 14.9375 24.28125 14.9375 C 25.324219 14.9375 26.171875 15.773438 26.191406 16.8125 L 26.191406 23.496094 C 26.191406 24.550781 25.335938 25.40625 24.28125 25.40625 Z M 24.28125 25.40625 "/>
</g>
</defs>
<g id="surface1">
<path style=" stroke:none;fill-rule:nonzero;fill:url(#linear0);" d="M 24.359375 32 L 7.640625 32 C 3.421875 32 0 28.578125 0 24.359375 L 0 7.640625 C 0 3.421875 3.421875 0 7.640625 0 L 24.359375 0 C 28.578125 0 32 3.421875 32 7.640625 L 32 24.359375 C 32 28.578125 28.578125 32 24.359375 32 Z M 24.359375 32 "/>
<use xlink:href="#surface5" mask="url(#mask0)"/>
<use xlink:href="#surface8" mask="url(#mask1)"/>
<path style=" stroke:none;fill-rule:nonzero;fill:rgb(100%,100%,100%);fill-opacity:1;" d="M 16.53125 25.40625 C 15.480469 25.40625 14.625 24.550781 14.621094 23.496094 L 14.621094 8.023438 C 14.644531 6.984375 15.492188 6.148438 16.53125 6.148438 C 17.574219 6.148438 18.421875 6.984375 18.441406 8.023438 L 18.441406 23.496094 C 18.441406 24.550781 17.585938 25.40625 16.53125 25.40625 Z M 16.53125 25.40625 "/>
</g>
</svg>
