<?xml version="1.0" encoding="UTF-8"?>
<svg xmlns="http://www.w3.org/2000/svg" xmlns:xlink="http://www.w3.org/1999/xlink" width="24pt" height="24pt" viewBox="0 0 32 32" version="1.1">
<defs>
<linearGradient id="linear0" gradientUnits="userSpaceOnUse" x1="983.96" y1="611.17" x2="78.97" y2="424.85" gradientTransform="matrix(0.0356995,0,0,-0.0358596,-2.278345,34.431851)">
<stop offset="0" style="stop-color:rgb(29.803922%,80.392157%,98.431373%);stop-opacity:1;"/>
<stop offset="1" style="stop-color:rgb(23.137255%,71.764706%,100%);stop-opacity:1;"/>
</linearGradient>
<filter id="alpha" filterUnits="objectBoundingBox" x="0%" y="0%" width="100%" height="100%">
  <feColorMatrix type="matrix" in="SourceGraphic" values="0 0 0 0 1 0 0 0 0 1 0 0 0 0 1 0 0 0 1 0"/>
</filter>
<mask id="mask0">
  <g filter="url(#alpha)">
<rect x="0" y="0" width="32" height="32" style="fill:rgb(0%,0%,0%);fill-opacity:0.6;stroke:none;"/>
  </g>
</mask>
<clipPath id="clip1">
  <rect x="0" y="0" width="32" height="32"/>
</clipPath>
<g id="surface5" clip-path="url(#clip1)">
<path style=" stroke:none;fill-rule:nonzero;fill:rgb(100%,100%,100%);fill-opacity:1;" d="M 17.597656 8.964844 L 18.800781 11.414062 C 18.992188 11.804688 19.363281 12.074219 19.792969 12.136719 L 22.484375 12.53125 C 23.945312 12.746094 24.527344 14.546875 23.46875 15.582031 L 21.523438 17.488281 C 21.214844 17.792969 21.070312 18.230469 21.144531 18.660156 L 21.605469 21.351562 C 21.851562 22.8125 20.328125 23.925781 19.019531 23.234375 L 16.613281 21.96875 C 16.230469 21.765625 15.769531 21.765625 15.386719 21.96875 L 12.980469 23.238281 C 11.671875 23.925781 10.148438 22.8125 10.394531 21.351562 L 10.855469 18.664062 C 10.929688 18.230469 10.785156 17.792969 10.476562 17.488281 L 8.527344 15.582031 C 7.472656 14.546875 8.054688 12.746094 9.515625 12.53125 L 12.207031 12.140625 C 12.636719 12.078125 13.007812 11.804688 13.199219 11.414062 L 14.402344 8.96875 C 15.054688 7.636719 16.945312 7.636719 17.597656 8.964844 Z M 17.597656 8.964844 "/>
</g>
</defs>
<g id="surface1">
<path style=" stroke:none;fill-rule:nonzero;fill:url(#linear0);" d="M 24.398438 31.988281 L 7.601562 31.988281 C 3.402344 31.988281 0 28.570312 0 24.351562 L 0 7.648438 C 0 3.429688 3.402344 0.0117188 7.601562 0.0117188 L 24.398438 0.0117188 C 28.597656 0.0117188 32 3.429688 32 7.648438 L 32 24.351562 C 32 28.570312 28.597656 31.988281 24.398438 31.988281 Z M 24.398438 31.988281 "/>
<use xlink:href="#surface5" mask="url(#mask0)"/>
<path style=" stroke:none;fill-rule:nonzero;fill:rgb(100%,100%,100%);fill-opacity:1;" d="M 16.316406 7.890625 C 17.339844 8.058594 18.039062 9.03125 17.871094 10.0625 C 17.707031 11.09375 16.738281 11.792969 15.710938 11.625 C 14.683594 11.457031 13.988281 10.488281 14.152344 9.457031 C 14.320312 8.421875 15.289062 7.722656 16.316406 7.890625 Z M 16.316406 7.890625 "/>
</g>
</svg>
