<?xml version="1.0" encoding="UTF-8"?>
<svg xmlns="http://www.w3.org/2000/svg" xmlns:xlink="http://www.w3.org/1999/xlink" width="24pt" height="24pt" viewBox="0 0 32 32" version="1.1">
<defs>
<linearGradient id="linear0" gradientUnits="userSpaceOnUse" x1="63.82" y1="514" x2="960.18" y2="514" gradientTransform="matrix(0.0356999,0,0,-0.0383539,-2.27837,35.713902)">
<stop offset="0" style="stop-color:rgb(100%,34.901961%,25.098039%);stop-opacity:1;"/>
<stop offset="1" style="stop-color:rgb(100%,52.941176%,29.803922%);stop-opacity:1;"/>
</linearGradient>
<filter id="alpha" filterUnits="objectBoundingBox" x="0%" y="0%" width="100%" height="100%">
  <feColorMatrix type="matrix" in="SourceGraphic" values="0 0 0 0 1 0 0 0 0 1 0 0 0 0 1 0 0 0 1 0"/>
</filter>
<mask id="mask0">
  <g filter="url(#alpha)">
<rect x="0" y="0" width="32" height="32" style="fill:rgb(0%,0%,0%);fill-opacity:0.6;stroke:none;"/>
  </g>
</mask>
<clipPath id="clip1">
  <rect width="32" height="32"/>
</clipPath>
<g id="surface6" clip-path="url(#clip1)">
<path style=" stroke:none;fill-rule:nonzero;fill:rgb(100%,100%,100%);fill-opacity:1;" d="M 17.058594 22.023438 L 9.09375 22.023438 C 8.132812 22.023438 7.351562 21.183594 7.351562 20.152344 C 7.351562 19.117188 8.132812 18.28125 9.09375 18.28125 L 17.058594 18.28125 C 18.019531 18.28125 18.800781 19.117188 18.800781 20.152344 C 18.800781 21.183594 18.019531 22.023438 17.058594 22.023438 Z M 17.058594 22.023438 "/>
</g>
</defs>
<g id="surface1">
<path style=" stroke:none;fill-rule:nonzero;fill:url(#linear0);" d="M 18.21875 31.988281 L 4.351562 31.988281 C 1.949219 31.988281 0 29.894531 0 27.3125 L 0 14.820312 C 0 6.640625 6.171875 0.015625 13.78125 0.015625 L 18.21875 0.015625 C 25.828125 0.015625 32 6.644531 32 14.820312 L 32 17.179688 C 32 25.359375 25.828125 31.988281 18.21875 31.988281 Z M 18.21875 31.988281 "/>
<path style=" stroke:none;fill-rule:nonzero;fill:rgb(100%,100%,100%);fill-opacity:1;" d="M 23.53125 13.835938 L 8.761719 13.835938 C 7.800781 13.835938 7.019531 13 7.019531 11.964844 C 7.019531 10.933594 7.800781 10.097656 8.761719 10.097656 L 23.53125 10.097656 C 24.492188 10.097656 25.273438 10.933594 25.273438 11.964844 C 25.273438 13 24.492188 13.835938 23.53125 13.835938 Z M 23.53125 13.835938 "/>
<use xlink:href="#surface6" mask="url(#mask0)"/>
</g>
</svg>
